# xmcd
#
# Track frame offsets:
#	150
#	13162
#	30084
#	47073
#	68205
#	87386
#	104300
#	119976
#	138548
#	156030
#	175640
#
# Disc length: 2646 seconds
#
# Revision: 1
# Processed by: cddbd v1.5.2PL0 Copyright (c) Steve Scherf et al.
# Submitted via: audiograbber 1.83.01
#
DISCID=8f0a540b
DTITLE=Jessica Simpson - Do You Know
DYEAR=2008
DGENRE=Country
TTITLE0=Come On Over
TTITLE1=Remember That
TTITLE2=Pray Out Loud
TTITLE3=You're My Sunday
TTITLE4=Sipping On History
TTITLE5=Still Beautiful
TTITLE6=Still Don't Stop Me
TTITLE7=When I Loved You Like That
TTITLE8=Might As Well Be Making Love
TTITLE9=Man Enough
TTITLE10=Do You Know (with Dolly Parton)
EXTD=
EXTT0=
EXTT1=
EXTT2=
EXTT3=
EXTT4=
EXTT5=
EXTT6=
EXTT7=
EXTT8=
EXTT9=
EXTT10=
PLAYORDER=
